<svg id="Layer_1" enable-background="new 0 0 128 128" height="512" viewBox="0 0 128 128" width="512" xmlns="http://www.w3.org/2000/svg"><path d="m116.957 105.098h-2.426c-1.173-5.831-5.148-10.651-10.452-13.013 4.771-6.798 7.75-14.815 8.355-23.253l3.47-30.876c.376-3.348-.695-6.709-2.941-9.22-2.245-2.512-5.465-3.953-8.834-3.953h-9.186c-.222-.057-.448-.102-.679-.132-.583-2.39-1.725-4.527-3.371-6.231-2.878-2.977-7.027-4.486-12.333-4.486-1.455 0-2.77-.119-3.892-.33.752-.898 1.224-2.039 1.224-3.299 0-2.849-2.318-5.167-5.168-5.167-2.109 0-3.922 1.274-4.724 3.091-.802-1.816-2.614-3.091-4.724-3.091-2.85 0-5.168 2.318-5.168 5.167 0 1.26.471 2.401 1.224 3.299-1.122.211-2.437.33-3.893.33-5.306 0-9.455 1.509-12.332 4.486-1.641 1.698-2.782 3.825-3.367 6.203-.302.029-.594.086-.881.159h-8.989c-3.369 0-6.589 1.441-8.834 3.953-2.246 2.511-3.317 5.872-2.941 9.22l3.468 30.856c.61 8.452 3.59 16.474 8.359 23.272-5.305 2.362-9.282 7.182-10.455 13.014h-2.426c-1.894 0-3.434 1.541-3.434 3.434 0 1.894 1.54 3.434 3.434 3.434h2.378c1.55 8.46 8.962 14.897 17.864 14.897s16.314-6.437 17.864-14.897h25.704c1.55 8.46 8.962 14.897 17.864 14.897 8.901 0 16.313-6.437 17.863-14.897h2.378c1.894 0 3.435-1.541 3.435-3.434.001-1.893-1.54-3.433-3.434-3.433zm-91.695-2.674 2.675 2.674h-3.916c.299-.938.715-1.837 1.241-2.674zm0 12.525c-.583-.928-1.023-1.935-1.326-2.984h4.311zm7.364 5.257c-1.274-.293-2.494-.8-3.604-1.498l3.252-3.251c.116.052.234.098.353.144v4.605zm0-18.434c-.119.046-.237.092-.353.144l-3.252-3.252c.975-.612 2.035-1.067 3.14-1.37.156.166.306.338.464.502v3.976zm5.316 18.434v-4.605c.119-.046.237-.092.353-.144l3.252 3.251c-1.111.698-2.33 1.204-3.605 1.498zm7.365-5.257-2.985-2.984h4.311c-.303 1.049-.744 2.056-1.326 2.984zm41.386 0c-.583-.928-1.023-1.935-1.326-2.984h4.31zm7.365 5.257c-1.274-.293-2.494-.8-3.605-1.498l3.252-3.252c.116.052.234.098.353.144zm12.68-17.782c.526.837.942 1.736 1.241 2.674h-3.916zm-7.364 17.782v-4.605c.119-.046.237-.092.353-.144l3.252 3.252c-1.112.697-2.331 1.203-3.605 1.497zm.352-18.29c-.116-.052-.234-.098-.352-.144v-3.974c.159-.165.309-.337.466-.504 1.105.303 2.164.758 3.139 1.37zm7.012 13.033-2.985-2.984h4.311c-.303 1.049-.743 2.056-1.326 2.984z" fill="#e6e7e8"/><path d="m16.559 64.719c1.177 16.403 11.073 30.336 24.932 37.378h41.018c13.859-7.042 23.754-20.975 24.932-37.378l3.47-30.875c.345-3.065-.637-6.143-2.692-8.442-2.056-2.3-5.004-3.619-8.089-3.619h-76.259c-3.085 0-6.033 1.319-8.089 3.619-2.056 2.299-3.037 5.376-2.692 8.442z" fill="#6dc9f7"/><path d="m100.129 26.783h-76.259c-3.489 0-6.202 3.035-5.812 6.502l3.482 30.978c1.474 21.259 19.15 37.751 40.46 37.751 21.31 0 38.986-16.492 40.46-37.751l3.482-30.978c.389-3.467-2.324-6.502-5.813-6.502z" fill="#fa759e"/><path d="m57.276 49.186c-2.302 0-4.167-1.866-4.167-4.167 0-1.633.948-3.032 2.316-3.715-1.487-.553-3.549-.863-5.985-.863-5.025 0-8.932-1.407-11.614-4.182-.403-.417-.76-.871-1.097-1.341h-6.097c-1.369 0-2.439 1.182-2.302 2.544l2.305 22.976c.119 1.182 1.114 2.083 2.302 2.083h23.496c1.758 0 3.183-1.425 3.183-3.184v-10.871c-.667.454-1.472.72-2.34.72z" fill="#6dc9f7"/><path d="m93.688 34.917h-6.417c-.337.47-.695.924-1.097 1.341-2.682 2.775-6.589 4.182-11.614 4.182-2.435 0-4.498.31-5.985.863 1.368.684 2.316 2.082 2.316 3.715 0 2.302-1.866 4.167-4.167 4.167-.868 0-1.673-.266-2.341-.72v10.872c0 1.758 1.425 3.184 3.183 3.184h23.816c1.188 0 2.183-.9 2.302-2.083l2.305-22.976c.138-1.362-.932-2.545-2.301-2.545z" fill="#6dc9f7"/><path d="m112.957 102.098h-101.915c-1.344 0-2.434 1.09-2.434 2.434s1.09 2.434 2.434 2.434h101.915c1.344 0 2.434-1.09 2.434-2.434 0-1.345-1.089-2.434-2.434-2.434z" fill="#fa759e"/><path d="m31.284 87.511c-9.486 0-17.175 7.69-17.175 17.175 0 9.486 7.69 17.175 17.175 17.175 9.486 0 17.175-7.69 17.175-17.175.001-9.485-7.689-17.175-17.175-17.175zm-10.158 9.362 6.155 6.155h-8.71c.289-2.25 1.162-4.353 2.555-6.155zm-2.555 9.472h8.71l-6.155 6.155c-1.393-1.802-2.266-3.904-2.555-6.155zm11.055 11.055c-2.251-.29-4.353-1.163-6.155-2.555l6.155-6.155zm0-16.717-6.155-6.155c1.802-1.393 3.904-2.266 6.155-2.555zm14.371 2.345h-8.71l6.155-6.155c1.393 1.803 2.266 3.905 2.555 6.155zm-11.055-11.055c2.251.29 4.353 1.163 6.155 2.555l-6.155 6.155zm0 25.427v-8.71l6.155 6.155c-1.802 1.392-3.904 2.265-6.155 2.555zm8.5-4.9-6.155-6.155h8.71c-.289 2.25-1.162 4.352-2.555 6.155z" fill="#6dc9f7"/><circle cx="31.284" cy="104.687" fill="#0089ef" r="6.415"/><path d="m31.284 101.477c-1.772 0-3.209 1.437-3.209 3.209s1.437 3.209 3.209 3.209 3.209-1.437 3.209-3.209-1.436-3.209-3.209-3.209z" fill="#6dc9f7"/><path d="m92.716 87.511c-9.486 0-17.175 7.69-17.175 17.175 0 9.486 7.69 17.175 17.175 17.175 9.486 0 17.175-7.69 17.175-17.175s-7.69-17.175-17.175-17.175zm-10.158 9.362 6.155 6.155h-8.71c.289-2.25 1.162-4.353 2.555-6.155zm-2.556 9.472h8.71l-6.155 6.155c-1.392-1.802-2.265-3.904-2.555-6.155zm11.055 11.055c-2.251-.29-4.353-1.163-6.155-2.555l6.155-6.155zm0-16.717-6.155-6.155c1.802-1.393 3.904-2.266 6.155-2.555zm14.372 2.345h-8.71l6.155-6.155c1.392 1.803 2.265 3.905 2.555 6.155zm-11.055-11.055c2.251.29 4.353 1.163 6.155 2.555l-6.155 6.155zm0 25.427v-8.71l6.155 6.155c-1.803 1.392-3.905 2.265-6.155 2.555zm8.5-4.9-6.155-6.155h8.71c-.29 2.25-1.163 4.352-2.555 6.155z" fill="#6dc9f7"/><circle cx="92.716" cy="104.687" fill="#0089ef" r="6.415"/><path d="m92.716 101.477c-1.772 0-3.209 1.437-3.209 3.209s1.437 3.209 3.209 3.209 3.209-1.437 3.209-3.209-1.437-3.209-3.209-3.209z" fill="#6dc9f7"/><ellipse cx="62" cy="79.953" fill="#6dc9f7" rx="13.375" ry="13.375" transform="matrix(.526 -.851 .851 .526 -38.607 90.659)"/><path d="m51.625 79.953c0-6.879 5.195-12.54 11.875-13.286-.493-.055-.992-.089-1.5-.089-7.387 0-13.375 5.988-13.375 13.375s5.988 13.375 13.375 13.375c.508 0 1.007-.034 1.5-.089-6.68-.747-11.875-6.407-11.875-13.286z" fill="#fff"/><path d="m65.094 87.085-1.876-1.391c-.787-.584-1.86-.594-2.658-.026l-1.903 1.354c-1.186.844-2.759-.323-2.295-1.702l.743-2.214c.312-.929-.01-1.952-.797-2.536l-1.876-1.391c-1.169-.867-.546-2.723.91-2.709l2.335.023c.98.01 1.854-.613 2.166-1.541l.743-2.214c.463-1.38 2.421-1.36 2.858.028l.7 2.228c.294.935 1.155 1.574 2.135 1.583l2.335.023c1.455.014 2.042 1.883.856 2.726l-1.903 1.354c-.798.568-1.14 1.585-.846 2.52l.7 2.228c.437 1.389-1.158 2.524-2.327 1.657z" fill="#ffd7e5"/><path d="m34.297 26.396c.016-.474.016-.952 0-1.427-.039-1.156.06-2.273.263-3.347-.089-.005-.173-.026-.263-.026-2.651 0-4.8 2.149-4.8 4.8s2.149 4.8 4.8 4.8c.205 0 .4-.035.598-.06-.439-1.48-.655-3.072-.598-4.74z" fill="#fa759e"/><path d="m89.506 21.595c-.024 0-.047.007-.071.007.206 1.082.307 2.209.267 3.376-.016.474-.016.953 0 1.427.057 1.671-.161 3.267-.604 4.75.136.012.268.041.407.041 2.651 0 4.8-2.149 4.8-4.8.002-2.651-2.148-4.801-4.799-4.801z" fill="#fa759e"/><path d="m57.077 42.201c-1.312-1.119-4.097-1.761-7.638-1.761-5.025 0-8.932-1.407-11.614-4.182-2.407-2.49-3.66-5.993-3.529-9.863.016-.474.016-.952 0-1.427-.131-3.862 1.122-7.363 3.529-9.854 2.682-2.775 6.59-4.181 11.614-4.181 3.541 0 6.325-.642 7.638-1.762l2.177-1.856c1.582-1.349 3.908-1.349 5.49 0l2.177 1.857c1.313 1.119 4.097 1.761 7.638 1.761 5.024 0 8.932 1.407 11.613 4.181 2.407 2.49 3.661 5.993 3.529 9.863-.016.474-.016.952 0 1.427.131 3.862-1.122 7.363-3.529 9.853-2.682 2.775-6.589 4.182-11.614 4.182-3.541 0-6.325.642-7.638 1.761l-2.946 2.512c-1.139.971-2.814.971-3.952 0z" fill="#fa759e"/><path d="m58.795 40.186c-1.837-1.566-5.072-2.394-9.356-2.394-4.279 0-7.546-1.135-9.71-3.374-1.904-1.97-2.894-4.788-2.787-7.935.017-.528.017-1.066 0-1.596-.107-3.144.883-5.962 2.787-7.932 2.164-2.239 5.431-3.374 9.71-3.374 4.283 0 7.518-.828 9.356-2.394l3.205-2.731 3.205 2.732c1.838 1.566 5.072 2.394 9.356 2.394 4.279 0 7.546 1.135 9.709 3.373 1.904 1.97 2.894 4.788 2.787 7.935-.017.528-.017 1.066 0 1.596.107 3.144-.883 5.962-2.787 7.932-2.164 2.239-5.431 3.374-9.71 3.374-4.283 0-7.519.828-9.356 2.394l-3.204 2.732z" fill="#0089ef"/><g fill="#fff"><path d="m62.324 11.707c-.188-.159-.461-.159-.648 0l-.19.162c-.21.179-.235.495-.057.705.145.169.379.22.571.138.061.025.126.038.19.038.142 0 .282-.06.381-.176.179-.21.153-.526-.057-.705z"/><path d="m45.223 16.203c-.172.033-.341.068-.506.106-.269.062-.437.33-.375.6.054.231.259.388.487.388.037 0 .074-.004.112-.013.153-.035.309-.068.469-.099.271-.052.449-.314.397-.585s-.318-.449-.584-.397z"/><path d="m58.269 14.115c-.143.069-.288.136-.436.201-.253.111-.368.406-.257.659.083.188.266.299.458.299.067 0 .136-.014.201-.042.159-.07.314-.142.469-.216.248-.12.353-.419.232-.668-.12-.249-.417-.352-.667-.233z"/><path d="m49.78 15.898c-.005 0-.011 0-.017 0l-.491.013c-.276.006-.496.234-.49.51.006.272.229.49.5.49h.01l.505-.014c.275-.009.492-.24.483-.516-.008-.27-.231-.483-.5-.483z"/><path d="m52.444 34.67-.503-.054c-.28-.025-.52.173-.547.448-.027.274.173.52.447.547l.487.052c.02.002.039.003.059.003.25 0 .466-.188.496-.442.032-.274-.164-.522-.439-.554z"/><path d="m56.92 35.634c-.16-.054-.324-.106-.489-.157-.263-.082-.542.068-.624.332-.08.264.068.544.333.624.154.047.308.097.458.148.054.018.107.026.161.026.208 0 .402-.131.474-.339.088-.261-.052-.545-.313-.634z"/><path d="m54.137 15.435-.48.087c-.271.046-.454.305-.408.577.042.244.254.416.492.416.028 0 .057-.002.086-.007l.498-.09c.271-.052.449-.314.397-.585-.052-.272-.322-.45-.585-.398z"/><path d="m47.929 34.447c-.164-.004-.326-.011-.484-.02-.299-.011-.513.197-.526.473-.015.276.196.511.472.526.168.009.338.016.51.021h.015c.27 0 .492-.214.5-.485.006-.276-.211-.506-.487-.515z"/><path d="m39.34 27.016.003-.259c.006-.276-.213-.505-.488-.511-.255.01-.506.212-.512.489l-.003.282.003.24c.007.271.229.487.5.487h.013c.275-.007.494-.236.487-.513z"/><path d="m38.885 23.262c.027.005.055.007.082.007.24 0 .452-.174.492-.419.025-.151.054-.305.089-.461.06-.27-.109-.537-.379-.597-.272-.06-.536.109-.598.378-.039.175-.071.348-.099.518-.044.273.14.53.413.574z"/><path d="m43.693 33.719c-.149-.056-.295-.114-.437-.175-.251-.111-.548.005-.658.259-.109.253.007.548.26.658.157.069.32.134.487.196.058.021.116.031.174.031.203 0 .395-.125.469-.326.096-.259-.036-.547-.295-.643z"/><path d="m84.527 22.772c.042.244.253.416.492.416.028 0 .057-.002.085-.007.272-.046.455-.305.409-.577-.029-.169-.063-.342-.104-.517-.063-.269-.325-.438-.6-.375-.27.062-.437.331-.375.6.038.155.068.309.093.46z"/><path d="m40.221 30.842c-.13-.245-.437-.337-.676-.207-.244.13-.337.433-.207.676.084.157.175.312.272.465.096.148.257.229.421.229.093 0 .187-.026.271-.08.232-.149.3-.459.15-.691-.084-.127-.161-.259-.231-.392z"/><path d="m40.936 18.088c-.139.116-.271.237-.398.363-.195.194-.197.511-.003.707.099.099.227.148.355.148.127 0 .255-.048.353-.145.107-.106.219-.209.336-.308.212-.177.239-.493.062-.704-.178-.212-.494-.239-.705-.061z"/><path d="m76.634 34.423c-.158.009-.32.017-.484.022-.275.009-.492.241-.482.517.01.27.231.482.5.482h.018c.172-.006.342-.013.51-.023.275-.017.485-.253.469-.529-.018-.275-.222-.488-.531-.469z"/><path d="m80.814 33.513c-.141.063-.285.123-.433.179-.259.098-.389.387-.291.645.076.2.266.323.468.323.059 0 .119-.01.177-.032.167-.063.329-.13.487-.201.252-.113.365-.409.252-.661-.113-.253-.41-.365-.66-.253z"/><path d="m79.198 16.29c-.166-.037-.335-.071-.507-.103-.268-.052-.533.129-.582.402-.049.272.131.532.402.582.16.029.315.061.47.096.036.008.073.012.108.012.229 0 .437-.158.488-.392.061-.27-.109-.537-.379-.597z"/><path d="m83.397 18.388c-.128-.124-.262-.243-.401-.357-.213-.176-.527-.146-.704.069-.175.213-.145.528.069.704.118.098.232.199.343.305.097.093.222.14.347.14.131 0 .262-.051.36-.153.192-.199.186-.516-.014-.708z"/><path d="m84.489 30.563c-.241-.128-.545-.034-.675.211-.07.135-.146.268-.229.399-.146.234-.074.543.16.689.082.051.174.076.265.076.166 0 .329-.083.425-.235.095-.153.184-.309.266-.465.128-.245.033-.547-.212-.675z"/><path d="m74.645 15.909-.49-.014c-.277-.02-.508.206-.518.482s.206.507.482.517l.506.015h.01c.271 0 .494-.217.5-.49.006-.275-.214-.504-.49-.51z"/><path d="m85.655 26.652c-.006-.276-.257-.479-.512-.489-.275.006-.494.235-.488.511l.003.259-.003.215c-.007.276.212.506.487.513h.013c.271 0 .493-.216.5-.487l.003-.24z"/><path d="m66.094 14.283c-.147-.066-.293-.134-.436-.204-.244-.121-.547-.019-.669.229-.121.248-.019.548.229.669.152.075.308.147.465.218.066.03.137.044.205.044.19 0 .373-.11.456-.295.114-.252.002-.548-.25-.661z"/><path d="m60.598 37.481c-.224-.161-.536-.112-.698.112s-.111.536.112.698c.13.094.255.189.378.287.092.073.202.109.312.109.146 0 .293-.064.392-.189.172-.216.136-.53-.08-.702-.136-.107-.275-.212-.416-.315z"/><path d="m72.141 34.607-.504.053c-.274.031-.472.279-.44.553.029.255.245.443.496.443.02 0 .038-.001.058-.003l.486-.051c.275-.026.477-.271.45-.545-.028-.276-.276-.473-.546-.45z"/><path d="m63.471 37.431c-.143.101-.281.205-.417.312-.218.17-.255.485-.085.702.099.125.246.191.394.191.108 0 .218-.035.309-.107.124-.097.251-.191.38-.284.225-.16.277-.472.117-.697-.162-.225-.475-.276-.698-.117z"/><path d="m70.264 15.507c-.163-.028-.322-.058-.479-.089-.265-.052-.533.123-.587.394s.123.534.394.587c.165.032.332.063.501.093.029.005.059.007.087.007.238 0 .449-.171.491-.415.047-.271-.136-.53-.407-.577z"/><path d="m67.647 35.453c-.164.049-.327.101-.487.154-.262.087-.404.37-.317.632.069.21.265.343.475.343.052 0 .105-.008.157-.025.152-.05.306-.099.462-.146.265-.08.414-.358.334-.623-.081-.265-.361-.415-.624-.335z"/></g><path d="m83.567 24.654c.038-1.116-.108-3.203-1.503-4.647-1.284-1.328-3.504-2.001-6.6-2.001-6.853 0-10.98-1.715-13.464-3.832-2.484 2.117-6.611 3.832-13.464 3.832-3.096 0-5.317.673-6.6 2.001-1.395 1.444-1.541 3.531-1.503 4.647.023.685.023 1.38 0 2.066-.038 1.115.108 3.203 1.503 4.647 1.284 1.328 3.504 2.001 6.6 2.001 6.853 0 10.98 1.714 13.464 3.831 2.483-2.117 6.611-3.831 13.464-3.831 3.096 0 5.317-.673 6.6-2.001 1.395-1.444 1.541-3.531 1.503-4.647-.023-.685-.023-1.381 0-2.066z" fill="#d4fbff"/><path d="m50.809 26.754c0 .201-.05.418-.148.652-.1.234-.255.463-.467.689-.213.225-.484.408-.813.548-.33.141-.715.211-1.154.211-.333 0-.636-.031-.908-.095-.272-.063-.52-.161-.742-.294-.223-.134-.427-.31-.613-.527-.166-.198-.309-.42-.426-.665-.118-.246-.206-.507-.265-.786-.06-.278-.089-.574-.089-.887 0-.508.074-.962.222-1.364s.359-.745.635-1.031.599-.503.969-.652.765-.224 1.184-.224c.511 0 .966.102 1.364.306.399.204.705.456.917.755s.318.583.318.85c0 .146-.052.275-.155.387s-.228.168-.374.168c-.163 0-.286-.039-.368-.116s-.173-.211-.273-.4c-.166-.313-.362-.546-.587-.702-.226-.155-.503-.232-.833-.232-.525 0-.943.2-1.255.599s-.467.965-.467 1.7c0 .49.068.898.206 1.224.139.326.333.569.586.729.252.161.548.241.887.241.367 0 .678-.091.932-.273s.445-.45.574-.803c.055-.166.122-.302.203-.407.08-.104.209-.157.387-.157.152 0 .283.053.392.159.106.107.161.239.161.397z" fill="#fa759e"/><path d="m52.009 28.075v-4.971c0-.258.06-.452.177-.581s.27-.194.456-.194c.192 0 .348.064.467.191.119.128.179.322.179.583v4.971c0 .261-.06.456-.179.585s-.274.193-.467.193c-.184 0-.335-.065-.454-.196-.12-.128-.179-.322-.179-.581z" fill="#fa759e"/><path d="m56.434 26.048h-.447v2.027c0 .267-.06.463-.177.59-.118.126-.271.189-.461.189-.203 0-.361-.066-.473-.198s-.168-.326-.168-.581v-4.855c0-.275.062-.475.185-.598.123-.124.323-.185.599-.185h2.079c.286 0 .532.012.735.036.204.024.388.074.551.149.198.083.373.202.525.357s.268.335.347.54c.079.206.118.423.118.652 0 .471-.133.846-.398 1.127s-.668.481-1.207.599c.227.12.443.298.65.534.206.235.391.485.553.751.162.265.288.505.379.719.09.214.136.361.136.441 0 .083-.027.166-.08.248s-.125.146-.217.194c-.093.047-.198.071-.319.071-.144 0-.264-.034-.361-.101s-.183-.154-.253-.257c-.07-.104-.165-.255-.286-.457l-.512-.852c-.184-.313-.349-.551-.493-.714s-.292-.275-.441-.336c-.149-.06-.338-.09-.564-.09zm.731-2.651h-1.179v1.735h1.145c.307 0 .565-.027.774-.08.21-.053.37-.144.48-.271s.165-.303.165-.527c0-.175-.044-.329-.133-.462s-.213-.233-.37-.299c-.149-.065-.442-.096-.882-.096z" fill="#fa759e"/><path d="m66.315 26.754c0 .201-.049.418-.148.652s-.255.463-.467.689c-.212.225-.483.408-.813.548-.33.141-.715.211-1.153.211-.333 0-.636-.031-.908-.095-.272-.063-.521-.161-.742-.294-.223-.134-.427-.31-.613-.527-.167-.198-.309-.42-.427-.665-.117-.246-.206-.507-.265-.786s-.089-.574-.089-.887c0-.508.073-.962.222-1.364.147-.402.359-.745.635-1.031s.599-.503.969-.652.765-.224 1.184-.224c.511 0 .965.102 1.364.306.398.204.704.456.916.755.213.3.319.583.319.85 0 .146-.052.275-.155.387s-.229.168-.374.168c-.164 0-.287-.039-.368-.116-.082-.078-.173-.211-.273-.4-.167-.313-.362-.546-.588-.702-.225-.155-.503-.232-.833-.232-.524 0-.943.2-1.254.599-.312.399-.468.965-.468 1.7 0 .49.069.898.207 1.224s.333.569.585.729c.253.161.549.241.887.241.367 0 .678-.091.933-.273.254-.182.445-.45.574-.803.055-.166.122-.302.202-.407.08-.104.209-.157.388-.157.151 0 .282.053.392.159.107.107.161.239.161.397z" fill="#fa759e"/><path d="m67.474 26.138v-3.034c0-.258.058-.452.174-.581s.27-.194.459-.194c.197 0 .354.064.471.194.116.129.175.323.175.581v3.103c0 .353.039.648.118.885s.219.42.42.551c.2.13.481.196.844.196.499 0 .852-.133 1.059-.398.206-.266.31-.668.31-1.208v-3.129c0-.261.058-.456.172-.583.115-.127.269-.191.461-.191s.348.064.467.191c.119.128.179.322.179.583v3.034c0 .494-.048.905-.145 1.235-.096.33-.277.62-.544.87-.229.212-.496.367-.801.465-.304.097-.66.146-1.067.146-.485 0-.902-.052-1.252-.157-.351-.105-.636-.267-.857-.486-.221-.22-.383-.501-.486-.844-.106-.342-.157-.752-.157-1.229z" fill="#fa759e"/><path d="m78.957 26.853c0 .382-.099.725-.295 1.029s-.484.542-.863.714-.828.258-1.347.258c-.623 0-1.137-.118-1.541-.353-.287-.169-.521-.396-.699-.678-.18-.283-.27-.557-.27-.824 0-.155.054-.288.161-.398.108-.11.245-.166.411-.166.135 0 .249.043.343.129.093.086.173.214.238.383.081.201.167.369.261.504.093.135.225.246.394.333.17.087.392.131.667.131.379 0 .687-.088.924-.265.236-.177.354-.397.354-.661 0-.209-.063-.38-.191-.51s-.292-.23-.495-.299c-.202-.069-.473-.142-.811-.219-.454-.106-.833-.23-1.139-.373s-.548-.335-.728-.581c-.18-.245-.269-.55-.269-.915 0-.347.095-.656.283-.925.189-.27.464-.477.822-.622.359-.145.78-.217 1.266-.217.388 0 .723.048 1.005.144.283.096.518.224.704.383s.322.327.408.501c.087.175.13.346.13.512 0 .152-.054.289-.162.411-.107.122-.241.183-.402.183-.146 0-.257-.037-.333-.109-.076-.073-.159-.193-.248-.36-.114-.238-.252-.424-.413-.557-.16-.133-.419-.2-.774-.2-.33 0-.597.073-.799.217-.202.145-.303.319-.303.523 0 .126.034.235.103.327s.164.171.284.237c.121.066.243.118.366.155.123.038.327.092.611.164.355.083.678.175.966.275.288.101.534.223.736.366s.36.325.474.544c.114.221.171.49.171.809z" fill="#fa759e"/><circle cx="57.276" cy="45.019" fill="#fa759e" r="4.167"/><path d="m66.724 40.851c-2.302 0-4.167 1.866-4.167 4.167 0 2.302 1.866 4.167 4.167 4.167 2.302 0 4.167-1.866 4.167-4.167s-1.866-4.167-4.167-4.167z" fill="#fa759e"/><circle cx="57.276" cy="6.305" fill="#fa759e" r="4.167"/><path d="m66.724 2.138c-2.302 0-4.167 1.866-4.167 4.167s1.866 4.167 4.167 4.167c2.302 0 4.167-1.866 4.167-4.167s-1.866-4.167-4.167-4.167z" fill="#fa759e"/><path d="m103.587 54.229c-.541-.061-1.043.333-1.105.882l-.528 4.698c-.062.549.334 1.044.883 1.105.037.004.075.006.112.006.503 0 .936-.377.993-.888l.528-4.698c.061-.548-.334-1.043-.883-1.105z" fill="#3a2c60"/><path d="m112.957 101.098h-2.426c-1.173-5.832-5.15-10.653-10.456-13.015 4.772-6.798 7.753-14.814 8.359-23.252l3.47-30.875c.376-3.348-.695-6.709-2.941-9.22-2.244-2.512-5.465-3.952-8.834-3.952h-9.184c-.223-.057-.449-.102-.681-.133-.583-2.39-1.725-4.527-3.371-6.23-2.878-2.977-7.027-4.486-12.333-4.486-1.455 0-2.774-.117-3.894-.328.754-.898 1.226-2.04 1.226-3.301 0-2.849-2.318-5.167-5.168-5.167-2.109 0-3.922 1.274-4.724 3.091-.802-1.816-2.615-3.091-4.724-3.091-2.85 0-5.168 2.318-5.168 5.167 0 1.261.472 2.403 1.226 3.301-1.12.211-2.439.328-3.895.328-5.307 0-9.456 1.509-12.332 4.486-1.641 1.698-2.782 3.824-3.367 6.203-.302.029-.596.086-.883.16h-8.987c-3.369 0-6.59 1.44-8.834 3.952-2.246 2.511-3.317 5.872-2.941 9.22l3.468 30.855c.611 8.453 3.593 16.473 8.363 23.271-5.307 2.361-9.285 7.183-10.458 13.016h-2.426c-1.894 0-3.434 1.541-3.434 3.434s1.54 3.434 3.434 3.434h2.378c1.55 8.46 8.962 14.897 17.864 14.897s16.314-6.437 17.864-14.897h25.704c1.55 8.46 8.962 14.897 17.864 14.897 8.901 0 16.313-6.437 17.863-14.897h2.378c1.894 0 3.434-1.541 3.434-3.434s-1.54-3.434-3.434-3.434zm-5.484-75.03c1.866 2.087 2.757 4.881 2.443 7.664l-3.473 30.916c-.594 8.264-3.543 16.105-8.279 22.701-1.024-.323-2.092-.544-3.185-.68 4.814-6.27 7.897-13.949 8.478-22.335.038-.551-.378-1.029-.929-1.067-.541-.032-1.029.377-1.067.928-.587 8.464-3.852 16.172-8.92 22.326-7.797.074-14.417 5.083-16.919 12.047-4.261 1.577-8.85 2.449-13.623 2.449s-9.362-.871-13.623-2.449c-2.501-6.961-9.119-11.969-16.913-12.046-5.073-6.162-8.342-13.883-8.93-22.368l-3.481-30.979c-.154-1.37.284-2.745 1.203-3.773s2.236-1.617 3.614-1.617h4.801c.615 2.49 2.837 4.349 5.5 4.406.215.6.482 1.172.772 1.728h-4.312c-.935 0-1.83.397-2.457 1.09s-.933 1.624-.84 2.554l2.305 22.977c.172 1.7 1.589 2.982 3.298 2.982h23.495c2.307 0 4.184-1.876 4.184-4.183v-10.411c.586-.502 1.068-1.118 1.384-1.833.315.714.797 1.331 1.383 1.832v10.41c0 2.307 1.877 4.183 4.184 4.183h23.816c1.71 0 3.127-1.282 3.297-2.983l2.306-22.976c.093-.93-.213-1.86-.84-2.554s-1.523-1.091-2.458-1.091h-4.631c.292-.559.56-1.135.776-1.738 2.573-.144 4.7-1.969 5.3-4.396h4.997c1.379 0 2.696.589 3.615 1.617s1.357 2.403 1.203 3.773l-1.96 17.436c-.062.549.334 1.044.883 1.105.54.065 1.044-.333 1.105-.882l1.96-17.436c.217-1.935-.402-3.877-1.7-5.33-1.298-1.452-3.159-2.284-5.106-2.284h-4.855c-.119-1.128-.564-2.158-1.237-3h6.093c2.8.002 5.476 1.2 7.343 3.287zm-32.535 74.853c-.013.059-.026.118-.038.177h-.484c.175-.056.347-.119.522-.177zm-25.354.177h-.483c-.012-.059-.026-.118-.038-.177.174.058.345.121.521.177zm-15.968-70.971c-1.771-.322-3.12-1.869-3.12-3.732 0-1.783 1.238-3.271 2.896-3.68-.078.747-.121 1.507-.095 2.286.015.453.015.908 0 1.359-.044 1.304.076 2.562.319 3.767zm22.844 15.851c.079.023.471.129 1.001.129.546 0 1.239-.112 1.891-.543.427-.283.767-.667 1.032-1.133.036.191.059.386.059.587 0 1.747-1.421 3.167-3.167 3.167-1.747 0-3.168-1.421-3.168-3.167s1.421-3.167 3.168-3.167c.627 0 1.208.189 1.7.504-.101.758-.34 1.278-.718 1.534-.519.349-1.215.175-1.245.167-.527-.147-1.078.154-1.232.681-.155.531.149 1.086.679 1.241zm.816 4.208c.466 0 .91-.082 1.34-.198v9.35c0 1.204-.979 2.183-2.184 2.183h-23.494c-.678 0-1.24-.508-1.308-1.182l-2.305-22.977c-.038-.374.08-.733.333-1.012.252-.279.598-.432.974-.432h5.579c.28.36.579.706.897 1.036 2.877 2.977 7.026 4.487 12.332 4.487 1.44 0 2.746.115 3.858.322-.732.892-1.189 2.016-1.189 3.257-.001 2.848 2.318 5.166 5.167 5.166zm29.617-13.233c.318-.329.617-.676.897-1.036h5.898c.376 0 .723.154.975.433s.371.638.333 1.012l-2.306 22.977c-.067.674-.629 1.182-1.307 1.182h-23.817c-1.204 0-2.184-.979-2.184-2.183v-9.35c.43.117.874.199 1.341.199 2.85 0 5.168-2.318 5.168-5.167 0-1.241-.458-2.365-1.189-3.257 1.112-.207 2.417-.322 3.857-.322 5.307-.001 9.457-1.511 12.334-4.488zm-17.001 8.066c0 1.747-1.421 3.167-3.168 3.167-1.746 0-3.167-1.421-3.167-3.167 0-.201.023-.396.059-.587.265.466.604.85 1.031 1.133.651.431 1.345.543 1.891.543.53 0 .922-.106 1.001-.129.53-.155.834-.71.679-1.241-.155-.529-.708-.834-1.241-.678-.007.002-.711.176-1.226-.163-.384-.254-.626-.776-.727-1.541.492-.315 1.073-.504 1.7-.504 1.747-.001 3.168 1.42 3.168 3.167zm20.722-22.234c1.553.476 2.693 1.903 2.693 3.61 0 1.789-1.246 3.283-2.913 3.685.236-1.189.352-2.428.309-3.71-.016-.451-.016-.906 0-1.358.025-.758-.016-1.498-.089-2.227zm-23.89-19.647c1.747 0 3.168 1.421 3.168 3.167s-1.421 3.167-3.168 3.167c-.627 0-1.208-.189-1.7-.504.1-.758.34-1.278.718-1.534.515-.349 1.214-.176 1.244-.167.526.148 1.077-.155 1.232-.681.155-.53-.148-1.085-.679-1.241-.161-.047-1.608-.435-2.891.414-.427.283-.767.667-1.032 1.133-.036-.191-.059-.386-.059-.587 0-1.746 1.421-3.167 3.167-3.167zm-9.448 0c1.746 0 3.167 1.421 3.167 3.167 0 .201-.023.397-.059.587-.266-.466-.605-.851-1.032-1.133-1.285-.849-2.732-.461-2.892-.413-.525.154-.824.701-.676 1.229.148.527.691.836 1.229.693.006-.001.723-.188 1.245.167.378.256.617.775.718 1.534-.492.315-1.073.504-1.7.504-1.747 0-3.168-1.421-3.168-3.167s1.421-3.168 3.168-3.168zm-21.98 21.798c-.121-3.591 1.032-6.831 3.249-9.125 2.486-2.572 6.151-3.876 10.895-3.876 2.402 0 4.445-.284 6.012-.811.569.216 1.18.349 1.824.349 2.109 0 3.922-1.274 4.724-3.091.802 1.816 2.615 3.091 4.724 3.091.644 0 1.255-.133 1.824-.349 1.568.527 3.611.811 6.012.811 4.742 0 8.408 1.304 10.896 3.876 2.217 2.293 3.37 5.537 3.249 9.133-.018.498-.018 1 0 1.496.121 3.59-1.032 6.83-3.249 9.125-2.486 2.572-6.151 3.876-10.896 3.876-2.361 0-4.373.276-5.929.786-.591-.236-1.232-.375-1.907-.375-2.109 0-3.922 1.274-4.724 3.091-.802-1.816-2.615-3.091-4.724-3.091-.675 0-1.316.139-1.907.375-1.556-.51-3.568-.786-5.93-.786-4.743 0-8.408-1.304-10.895-3.876-2.218-2.294-3.371-5.539-3.249-9.135.018-.497.018-.998.001-1.494zm-17.739 39.712c-.001-.013-.002-.026-.003-.04l-3.47-30.875c-.313-2.783.577-5.576 2.443-7.664s4.543-3.285 7.344-3.285h5.895c-.673.842-1.118 1.872-1.237 3h-4.659c-1.947 0-3.808.833-5.105 2.284s-1.917 3.394-1.7 5.33l3.478 30.936c.581 8.385 3.664 16.064 8.478 22.335-1.093.137-2.16.358-3.185.68-4.737-6.597-7.686-14.438-8.279-22.701zm-6.515 41.317c-.79 0-1.434-.643-1.434-1.434s.644-1.434 1.434-1.434h2.147c-.046.525-.081 1.053-.081 1.589 0 .431.035.854.065 1.278h-2.131zm20.242 14.897c-8.919 0-16.176-7.256-16.176-16.175s7.257-16.175 16.176-16.175 16.176 7.256 16.176 16.175-7.257 16.175-16.176 16.175zm18.111-14.897c.03-.424.065-.847.065-1.278 0-.536-.035-1.064-.081-1.589h25.241c-.046.525-.081 1.053-.081 1.589 0 .431.035.854.065 1.278zm43.321 14.897c-8.919 0-16.176-7.256-16.176-16.175s7.257-16.175 16.176-16.175 16.175 7.256 16.175 16.175-7.256 16.175-16.175 16.175zm20.241-14.897h-2.131c.03-.424.065-.847.065-1.278 0-.536-.035-1.064-.081-1.589h2.147c.79 0 1.434.643 1.434 1.434s-.644 1.433-1.434 1.433z" fill="#3a2c60"/><path d="m44.748 103.689c.189-.216.277-.503.241-.788-.31-2.412-1.263-4.708-2.756-6.639-.176-.228-.44-.368-.728-.387-.283-.016-.566.088-.771.291l-3.767 3.767c-.282-.337-.594-.649-.931-.931l3.766-3.767c.203-.203.31-.484.291-.771s-.159-.552-.387-.728c-1.931-1.493-4.227-2.446-6.638-2.756-.29-.036-.573.051-.788.241-.216.19-.34.463-.34.751v5.332c-.217-.019-.436-.033-.658-.033s-.441.014-.658.033v-5.332c0-.288-.124-.561-.34-.751s-.499-.277-.788-.241c-2.412.31-4.708 1.263-6.639 2.756-.228.176-.368.441-.387.728s.088.567.291.771l3.767 3.767c-.337.282-.649.594-.931.931l-3.766-3.767c-.203-.203-.482-.307-.771-.291-.287.019-.552.159-.728.387-1.492 1.931-2.445 4.227-2.757 6.639-.036.285.052.572.241.788s.464.34.751.34h5.331c-.019.217-.033.436-.033.658s.014.441.033.658h-5.328c-.287 0-.562.124-.751.34s-.277.503-.241.788c.312 2.412 1.265 4.708 2.757 6.638.176.228.44.368.728.387.021.001.042.002.063.002.265 0 .519-.105.707-.293l3.766-3.767c.282.337.594.649.931.931l-3.767 3.766c-.203.203-.31.484-.291.771s.159.552.387.728c1.931 1.493 4.227 2.446 6.639 2.756.043.005.086.008.128.008.241 0 .477-.087.66-.249.216-.19.34-.463.34-.751v-5.331c.217.019.436.033.658.033s.441-.014.658-.033v5.331c0 .288.124.561.34.751.184.162.419.249.66.249.042 0 .085-.003.128-.008 2.411-.31 4.707-1.263 6.638-2.756.228-.176.368-.441.387-.728s-.088-.567-.291-.771l-3.766-3.766c.337-.282.648-.594.931-.931l3.767 3.767c.188.188.442.293.707.293.021 0 .042 0 .063-.002.287-.019.552-.159.728-.387 1.493-1.932 2.446-4.228 2.756-6.639.036-.285-.052-.572-.241-.788-.19-.216-.464-.339-.751-.339h-5.331c.019-.217.033-.436.033-.658s-.014-.441-.033-.658h5.331c.286-.001.56-.124.75-.34zm-3.441-5.266c.526.838.942 1.737 1.241 2.674h-.815c-.678-.349-1.338-.724-1.992-1.108zm-5.178-4.509c.402.323.822.624 1.236.931l-2.126 2.126c-.439-.332-.871-.671-1.297-1.019v-2.787c.754.175 1.484.432 2.187.749zm-11.108.75c.982-.616 2.051-1.073 3.164-1.376.146.154.294.307.441.459v4.025c-.119.046-.237.092-.353.144zm-3.759 3.759 2.674 2.674h-3.915c.299-.937.715-1.836 1.241-2.674zm0 12.526c-.583-.929-1.023-1.935-1.326-2.984h4.311zm7.364 5.257c-1.274-.293-2.494-.8-3.605-1.498l3.252-3.252c.116.052.234.098.353.144zm-2.758-11.519c0-2.986 2.43-5.416 5.416-5.416s5.415 2.429 5.415 5.416-2.429 5.416-5.415 5.416-5.416-2.43-5.416-5.416zm11.679 10.022c-1.111.697-2.33 1.204-3.604 1.498v-4.605c.119-.046.237-.092.353-.144zm3.76-3.76-2.985-2.984h4.312c-.304 1.049-.745 2.056-1.327 2.984z" fill="#3a2c60"/><path d="m31.284 100.477c-2.321 0-4.209 1.888-4.209 4.209s1.888 4.209 4.209 4.209 4.209-1.888 4.209-4.209-1.887-4.209-4.209-4.209zm0 6.419c-1.218 0-2.209-.991-2.209-2.209s.991-2.209 2.209-2.209 2.209.991 2.209 2.209-.991 2.209-2.209 2.209z" fill="#3a2c60"/><path d="m106.18 103.689c.189-.216.277-.503.241-.788-.311-2.412-1.264-4.708-2.757-6.64-.176-.227-.44-.368-.728-.386-.286-.016-.568.088-.771.291l-3.765 3.767c-.282-.337-.594-.649-.931-.931l3.766-3.767c.203-.203.31-.484.291-.771s-.159-.552-.387-.728c-1.931-1.493-4.226-2.446-6.638-2.756-.29-.036-.573.051-.788.241-.216.19-.34.463-.34.751v5.332c-.217-.019-.436-.033-.658-.033-.223 0-.442.014-.659.033v-5.332c0-.288-.124-.561-.34-.751s-.498-.277-.788-.241c-2.412.31-4.707 1.263-6.638 2.756-.228.176-.368.441-.387.728s.088.567.291.771l3.767 3.767c-.337.282-.648.594-.931.931l-3.766-3.767c-.204-.203-.48-.307-.771-.291-.287.019-.552.159-.728.387-1.492 1.931-2.445 4.227-2.757 6.639-.036.285.052.572.241.788s.464.34.751.34h5.331c-.019.217-.033.436-.033.658s.014.441.033.658h-5.331c-.287 0-.562.124-.751.34s-.277.503-.241.788c.312 2.412 1.265 4.708 2.757 6.638.176.228.44.368.728.387.021.001.042.002.063.002.265 0 .519-.105.707-.293l3.766-3.767c.282.337.594.648.931.931l-3.766 3.767c-.203.203-.31.484-.291.771s.159.552.387.728c1.931 1.493 4.226 2.446 6.638 2.756.043.005.086.008.128.008.241 0 .477-.087.66-.249.216-.19.34-.463.34-.751v-5.331c.218.019.437.033.659.033s.441-.014.658-.033v5.331c0 .288.124.561.34.751.184.162.419.249.66.249.042 0 .085-.003.128-.008 2.412-.31 4.707-1.263 6.638-2.756.228-.176.368-.441.387-.728s-.088-.567-.291-.771l-3.766-3.766c.337-.282.648-.594.931-.931l3.766 3.766c.188.188.442.293.707.293.021 0 .042 0 .063-.002.287-.019.552-.159.728-.386 1.493-1.932 2.446-4.228 2.757-6.639.036-.285-.052-.572-.241-.788-.19-.216-.464-.339-.751-.339h-5.331c.019-.217.033-.436.033-.658s-.014-.441-.033-.658h5.331c.287-.002.56-.125.751-.341zm-3.443-5.266c.526.837.942 1.737 1.242 2.674h-3.916zm-7.363-4.675c.148-.153.296-.305.442-.46 1.113.303 2.181.76 3.162 1.376l-3.252 3.252c-.116-.052-.234-.098-.353-.144v-4.024zm-5.317 2.206c-.425.347-.858.686-1.296 1.019l-2.126-2.126c.415-.308.835-.609 1.237-.932.703-.318 1.433-.574 2.186-.747v2.786zm-7.364 2.469 1.566 1.566c-.654.384-1.314.759-1.992 1.108h-.815c.3-.937.716-1.836 1.241-2.674zm0 12.526c-.583-.929-1.023-1.935-1.326-2.984h4.311zm7.364 5.257c-1.274-.293-2.493-.8-3.604-1.498l3.252-3.252c.116.052.234.098.353.144v4.606zm-2.757-11.519c0-2.986 2.43-5.416 5.416-5.416s5.415 2.429 5.415 5.416-2.429 5.416-5.415 5.416-5.416-2.43-5.416-5.416zm11.679 10.022c-1.111.697-2.33 1.204-3.604 1.498v-4.605c.119-.046.237-.092.353-.144zm3.758-3.76-2.984-2.984h4.312c-.304 1.049-.745 2.056-1.328 2.984z" fill="#3a2c60"/><path d="m92.716 100.477c-2.321 0-4.21 1.888-4.21 4.209s1.889 4.209 4.21 4.209 4.209-1.888 4.209-4.209-1.888-4.209-4.209-4.209zm0 6.419c-1.219 0-2.21-.991-2.21-2.209s.991-2.209 2.21-2.209c1.218 0 2.209.991 2.209 2.209s-.991 2.209-2.209 2.209z" fill="#3a2c60"/><path d="m62 65.578c-7.927 0-14.375 6.449-14.375 14.375 0 7.927 6.448 14.375 14.375 14.375s14.375-6.449 14.375-14.375c0-7.927-6.448-14.375-14.375-14.375zm0 26.75c-6.823 0-12.375-5.552-12.375-12.375s5.552-12.375 12.375-12.375 12.375 5.551 12.375 12.375-5.552 12.375-12.375 12.375z" fill="#3a2c60"/><path d="m68.625 75.6-2.335-.023c-.548-.005-1.027-.36-1.191-.883l-.699-2.229c-.331-1.054-1.26-1.742-2.364-1.752-.008 0-.017 0-.025 0-1.093 0-2.021.667-2.37 1.706l-.744 2.214c-.174.519-.673.816-1.207.859l-2.336-.023c-.009 0-.018 0-.026 0-1.093 0-2.021.667-2.37 1.706-.352 1.047-.005 2.148.882 2.807l1.875 1.391c.44.326.619.895.444 1.415l-.743 2.213c-.352 1.047-.006 2.148.881 2.807.889.658 2.042.669 2.942.029l1.901-1.354c.447-.318 1.042-.313 1.483.015l1.876 1.391c.45.334.97.501 1.489.501.505 0 1.01-.158 1.453-.473.899-.641 1.267-1.735.936-2.788l-.7-2.229c-.164-.523.025-1.087.472-1.405l1.903-1.354c.899-.641 1.267-1.735.937-2.789-.332-1.053-1.259-1.741-2.364-1.752zm.267 2.911-1.903 1.354c-1.154.822-1.645 2.283-1.22 3.634l.699 2.229c.099.314-.099.496-.188.56-.089.065-.328.189-.591-.005l-1.875-1.391c-1.137-.844-2.677-.861-3.835-.039l-1.902 1.354c-.268.19-.502.06-.591-.006-.088-.065-.281-.251-.176-.563l.743-2.214c.45-1.344-.012-2.813-1.149-3.657l-1.875-1.391c-.265-.196-.212-.459-.177-.563.034-.104.149-.342.474-.342h.007l2.336.023h.033c1.403 0 2.643-.89 3.09-2.222l.744-2.215c.103-.307.362-.342.476-.342.076.006.38.032.479.352l.699 2.229c.426 1.352 1.663 2.27 3.08 2.284l2.335.023c.329.003.441.248.475.352.032.102.08.366-.188.556z" fill="#3a2c60"/></svg>