<svg id="Layer_1" enable-background="new 0 0 128 128" height="512" viewBox="0 0 128 128" width="512" xmlns="http://www.w3.org/2000/svg"><path d="m125.936 120.315h-7.051c-2.654-6.07-9.034-23.519-13.135-36.232-2.355-7.302-3.686-13.431-3.823-13.952 1.803-1.117 3.015-3.094 3.052-5.358.004-.036.021-.067.021-.104v-10.932c0-.003.003-.006.003-.009.003-.019-.004-.037-.003-.057v-.085c0-.01-.006-.019-.006-.029-.005-.11-.025-.214-.063-.314-.012-.032-.025-.062-.04-.092-.037-.072-.081-.137-.134-.198-.035-.041-.069-.079-.11-.114-.043-.036-.089-.064-.138-.093-.066-.04-.132-.074-.207-.098-.012-.004-.02-.012-.032-.015-.297-.081-29.678-8.188-37.27-31.545v-2.048h3.887v.471c0 .957.778 1.736 1.735 1.736h6.866c.532 0 1.055-.145 1.515-.418.711-.425 1.117-1.178 1.087-2.012-.03-.835-.511-1.586-1.253-1.96l-.364-.157.719-.477c.57-.378.941-.987 1.018-1.668.072-.648-.141-1.286-.583-1.748-.557-.582-1.336-.916-2.138-.916h-2.924v-.29-.181c0-.957-.778-1.735-1.735-1.735h-8.827-.001s-.001 0-.001 0c-.552 0-1 .448-1 1v10.404c-7.585 23.335-36.973 31.464-37.27 31.543-.012.003-.02.011-.032.015-.076.024-.142.059-.209.099-.048.028-.093.056-.135.091-.042.036-.077.074-.112.117-.052.06-.095.124-.131.195-.016.032-.03.062-.042.096-.038.098-.057.2-.062.309 0 .011-.007.021-.007.033v.095c.001.016-.005.031-.002.047 0 .003.002.005.002.008v10.933c0 .037.017.068.021.104.037 2.263 1.249 4.241 3.051 5.358-5.065 19.23-10.656 35.769-16.957 50.185h-7.052c-.552 0-1 .448-1 1s.448 1 1 1h7.709 104.455 7.709c.553 0 1-.448 1-1s-.448-1.002-1.001-1.002z" fill="#e6e7e8"/><path d="m97.021 66.604c-.759.317-1.592.492-2.465.492-2.287 0-4.28-1.214-5.417-3.019-1.137 1.805-3.13 3.019-5.417 3.019-2.298 0-4.299-1.225-5.434-3.044-1.134 1.82-3.136 3.044-5.434 3.044-2.294 0-4.292-1.22-5.427-3.034-1.136 1.814-3.133 3.034-5.427 3.034s-4.292-1.22-5.427-3.034c-1.136 1.814-3.133 3.034-5.427 3.034-2.298 0-4.299-1.225-5.434-3.044-1.134 1.82-3.136 3.044-5.434 3.044-2.287 0-4.279-1.214-5.417-3.019-1.137 1.805-3.13 3.019-5.417 3.019-.873 0-1.706-.176-2.465-.492-5.35 20.271-11.078 36.792-17.206 50.712h104.454c-6.127-13.918-11.855-30.438-17.206-50.712z" fill="#fa759e"/><path d="m88.377 65.047c-1.167 1.252-2.811 2.049-4.655 2.049-2.298 0-4.299-1.225-5.434-3.044-1.134 1.82-3.136 3.044-5.434 3.044-2.294 0-4.292-1.22-5.427-3.034-1.136 1.814-3.133 3.034-5.427 3.034s-4.292-1.22-5.427-3.034c-1.136 1.814-3.133 3.034-5.427 3.034-2.298 0-4.299-1.225-5.434-3.044-1.134 1.82-3.136 3.044-5.434 3.044-1.844 0-3.487-.797-4.655-2.049-4.167 20.99-8.638 37.992-13.428 52.268h79.61c-4.79-14.274-9.26-31.275-13.428-52.268z" fill="#fff"/><path d="m78.288 64.052c-1.134 1.82-3.136 3.044-5.434 3.044-2.294 0-4.292-1.22-5.427-3.034-1.136 1.814-3.133 3.034-5.427 3.034s-4.292-1.22-5.427-3.034c-1.136 1.814-3.133 3.034-5.427 3.034-2.298 0-4.299-1.225-5.434-3.044-.471.756-1.099 1.401-1.829 1.906-2.807 20.568-5.814 37.29-9.034 51.357h54.302c-3.219-14.065-6.227-30.786-9.034-51.357-.73-.505-1.357-1.15-1.829-1.906z" fill="#fa759e"/><path d="m67.427 64.062c-1.136 1.814-3.133 3.034-5.427 3.034s-4.292-1.22-5.427-3.034c-.749 1.196-1.877 2.124-3.214 2.625-1.318 20.233-2.728 36.728-4.237 50.629h25.756c-1.509-13.898-2.919-30.392-4.237-50.629-1.337-.5-2.465-1.429-3.214-2.625z" fill="#fff"/><path d="m100.011 49.597s-30.236-8.085-38.011-32.338c-7.775 24.254-38.011 32.338-38.011 32.338z" fill="#fff"/><path d="m89.151 49.597s-21.597-8.085-27.151-32.338c-5.554 24.254-27.151 32.338-27.151 32.338z" fill="#fa759e"/><path d="m78.297 49.597s-12.965-8.085-16.297-32.338c-3.332 24.254-16.297 32.338-16.297 32.338z" fill="#fff"/><path d="m67.421 49.597s-4.31-8.085-5.421-32.338c-.344 24.21-5.421 32.338-5.421 32.338z" fill="#fa759e"/><path d="m76.639 11.39c.638-.423.794-1.339.265-1.892-.358-.374-.861-.607-1.416-.607h-3.923v-1.471c0-.405-.331-.736-.736-.736h-8.827v7.356h5.885v1.471c0 .405.331.736.736.736h6.866c.365 0 .708-.101 1.001-.277.852-.51.784-1.774-.102-2.221l-.367-.185c-.674-.34-.73-1.281-.1-1.698z" fill="#0089ef"/><path d="m62.002 75.71s1.981 21.793 25.756 26.746l-4.953 14.859s-20.803-8.915-20.803-41.605z" fill="#6dc9f7"/><path d="m62.002 75.715c0 1.26-.03 2.49-.09 3.68-.14 2.79-.44 5.39-.86 7.81-3.05 17.52-12.7 25.7-17.33 28.69-1.54 1-2.52 1.42-2.52 1.42l-4.03-12.06-.93-2.8c23.78-4.95 25.76-26.74 25.76-26.74z" fill="#fff"/><path d="m61.912 79.395c-.14 2.79-.44 5.39-.86 7.81-3.05 17.52-12.7 25.7-17.33 28.69-1.54 1-2.52 1.42-2.52 1.42l-4.03-12.06c20.46-4.75 24.18-22.19 24.74-25.86z" fill="#6dc9f7"/><path d="m56.667 61.669c.47 2.519 2.677 4.427 5.332 4.427 2.656 0 4.862-1.908 5.332-4.427z" fill="#fff"/><path d="m45.813 61.669c.47 2.519 2.677 4.427 5.332 4.427s4.862-1.908 5.332-4.427z" fill="#fa759e"/><path d="m67.522 61.669c.47 2.519 2.677 4.427 5.332 4.427s4.862-1.908 5.332-4.427z" fill="#fa759e"/><path d="m34.945 61.669c.47 2.519 2.677 4.427 5.332 4.427s4.862-1.908 5.332-4.427z" fill="#fff"/><path d="m78.39 61.669c.47 2.519 2.677 4.427 5.332 4.427s4.862-1.908 5.332-4.427z" fill="#fff"/><path d="m24.112 61.669c.47 2.519 2.677 4.427 5.332 4.427s4.862-1.908 5.332-4.427z" fill="#fa759e"/><path d="m89.223 61.669c.47 2.519 2.677 4.427 5.332 4.427s4.862-1.908 5.332-4.427z" fill="#fa759e"/><path d="m24 49.586h76v11.083h-76z" fill="#fff"/><path d="m24.028 49.586h10.86v11.083h-10.86z" fill="#fa759e"/><path d="m45.716 49.586h10.86v11.083h-10.86z" fill="#fa759e"/><path d="m67.424 49.586h10.86v11.083h-10.86z" fill="#fa759e"/><path d="m89.143 49.586h10.847v11.083h-10.847z" fill="#fa759e"/><path d="m74.331 44.094c-7.055 0-10.495-3.399-11.704-4.964-.233-.301-.695-.241-.863.101-1.053 2.141-4.076 4.863-12.095 4.863-10.761 0-11.512 7.402-11.419 10.156.019.574.019 1.148 0 1.722-.093 2.754.658 10.156 11.419 10.156 8.019 0 10.936 2.721 11.989 4.863.168.342.63.402.863.101 1.209-1.564 4.755-4.964 11.81-4.964 10.761 0 11.512-7.402 11.419-10.156-.019-.574-.019-1.148 0-1.722.093-2.754-.658-10.156-11.419-10.156z" fill="#0089ef"/><path d="m121.936 116.315h-7.051c-4.177-9.556-7.966-19.817-11.567-31.354-.164-.528-.728-.82-1.252-.657-.527.165-.821.726-.656 1.252 3.521 11.284 7.222 21.364 11.29 30.759h-28.508l4.514-13.542c.091-.271.061-.567-.081-.815-.143-.248-.384-.422-.663-.48-22.741-4.738-24.884-24.999-24.964-25.86-.005-.049-.029-.089-.04-.135-.016-.067-.029-.134-.058-.195-.023-.048-.055-.088-.086-.132-.042-.061-.082-.121-.137-.171-.034-.031-.073-.052-.11-.079-.064-.045-.128-.089-.202-.118-.049-.019-.1-.025-.152-.037-.056-.013-.107-.038-.166-.04-.017-.001-.031.007-.048.007-.015 0-.029-.007-.044-.007-.052.002-.096.026-.146.036-.064.013-.128.021-.186.046-.056.023-.103.058-.153.09-.055.035-.111.068-.158.113-.042.04-.071.088-.105.134-.039.053-.079.104-.107.165-.026.056-.036.117-.052.178-.012.05-.038.094-.042.146-.019.21-2.177 21.111-24.964 25.858-.279.058-.521.233-.663.48-.143.248-.172.544-.082.815l4.514 13.542h-28.511c6.17-14.253 11.656-30.547 16.635-49.406.485.117.988.186 1.508.186 2.287 0 4.28-1.214 5.417-3.019 1.137 1.805 3.129 3.019 5.417 3.019 1.235 0 2.381-.358 3.355-.97 1.705.658 3.715 1.002 6.037 1.002 7.418 0 10.126 2.34 11.091 4.304.234.477.688.793 1.214.847.051.005.103.008.153.008.462 0 .896-.211 1.184-.583.83-1.073 4.076-4.575 11.02-4.575 2.322 0 4.332-.343 6.037-1.002.973.611 2.119.97 3.354.97 2.287 0 4.28-1.214 5.417-3.019 1.137 1.805 3.13 3.019 5.417 3.019.52 0 1.023-.069 1.508-.186.354 1.343.71 2.682 1.067 3.991.146.534.702.846 1.229.701.532-.146.847-.696.701-1.229-.38-1.391-.758-2.813-1.134-4.243 0 0 0 0-.001 0 1.802-1.117 3.016-3.094 3.053-5.358.004-.036.021-.067.021-.104v-10.933c0-.002.002-.004.002-.006.002-.013-.003-.025-.002-.038v-.104c0-.013-.007-.023-.007-.036-.005-.106-.024-.206-.061-.303-.013-.035-.028-.067-.044-.101-.036-.069-.078-.131-.129-.191-.036-.043-.072-.083-.115-.119-.041-.035-.086-.062-.133-.09-.067-.041-.134-.076-.211-.1-.011-.003-.02-.012-.031-.015-.297-.079-29.678-8.186-37.269-31.543v-2.048h3.887v.471c0 .957.778 1.736 1.735 1.736h6.866c.532 0 1.055-.145 1.515-.418.711-.425 1.117-1.178 1.087-2.012-.03-.835-.511-1.586-1.253-1.96l-.364-.157.719-.477c.57-.378.941-.987 1.018-1.668.072-.648-.141-1.286-.583-1.748-.557-.582-1.336-.916-2.138-.916h-2.924v-.29-.181c0-.957-.778-1.735-1.735-1.735h-8.828s0 0-.001 0 0 0-.001 0c-.552 0-1 .448-1 1v10.404c-7.586 23.335-36.973 31.464-37.27 31.543-.012.003-.02.011-.032.015-.076.024-.142.059-.209.099-.048.028-.093.056-.135.091-.042.036-.077.074-.112.117-.052.06-.095.124-.131.195-.016.032-.03.062-.042.096-.038.098-.057.2-.062.309 0 .011-.007.021-.007.033v.095c.001.016-.005.031-.002.047 0 .003.002.005.002.008v10.933c0 .037.017.068.021.104.037 2.263 1.251 4.24 3.052 5.358-5.065 19.229-10.655 35.768-16.956 50.185h-7.053c-.552 0-1 .448-1 1s.448 1 1 1h7.709 104.454 7.709c.553 0 1-.448 1-1s-.448-1.002-1-1.002zm-58.934-108.63h7.563v1.207 2.679c0 .552.447 1 1 1s1-.448 1-1v-1.679h2.924c.263 0 .509.106.692.298.013.013.051.053.04.144-.01.09-.061.173-.135.223l-.718.476c-.597.395-.928 1.057-.886 1.771s.448 1.332 1.087 1.654l.367.185c.134.067.152.195.154.247.004.1-.035.175-.113.223-.148.088-.317.135-.489.135h-6.602v-1.207c0-.552-.447-1-1-1h-4.885v-5.356zm-22.725 57.411c-2.096 0-3.847-1.468-4.304-3.427h2.5c.384.732.881 1.453 1.527 2.121.417.432.89.809 1.391 1.158-.355.094-.728.148-1.114.148zm21.924 4.818c-1.445-2.315-4.799-4.785-12.532-4.785-3.71 0-6.48-.918-8.23-2.729-2.021-2.09-2.239-4.903-2.189-6.393.02-.597.02-1.193 0-1.79-.05-1.49.167-4.303 2.189-6.394 1.75-1.811 4.52-2.729 8.23-2.729 8.102 0 11.347-2.761 12.636-4.788 1.587 1.783 5.266 4.788 12.026 4.788 3.711 0 6.48.918 8.231 2.729 2.021 2.091 2.238 4.903 2.188 6.395-.02.595-.02 1.191 0 1.788.051 1.49-.166 4.301-2.188 6.393-1.751 1.811-4.521 2.729-8.231 2.729-6.843 0-10.539 3.003-12.13 4.786zm21.521-4.818c-.386 0-.758-.054-1.113-.149.502-.349.974-.727 1.392-1.159.646-.668 1.142-1.388 1.526-2.12h2.5c-.457 1.96-2.209 3.428-4.305 3.428zm10.834 0c-2.097 0-3.848-1.468-4.304-3.427h8.609c-.457 1.959-2.209 3.427-4.305 3.427zm4.444-5.427h-12.688c.405-1.451.468-2.803.436-3.729-.018-.552-.018-1.105 0-1.655.031-.918-.028-2.253-.422-3.687h12.674zm-37-39.476c6.589 16.27 23.278 24.862 32.096 28.393h-8.555c-.386-.743-.886-1.474-1.541-2.152-2.142-2.216-5.395-3.34-9.669-3.34-6.658 0-9.85-3.2-10.913-4.576-.319-.413-.818-.626-1.336-.575-.526.053-.98.369-1.216.847-.79 1.607-3.295 4.304-11.197 4.304-4.273 0-7.526 1.123-9.668 3.339-.656.678-1.155 1.41-1.541 2.153h-8.556c8.817-3.531 25.507-12.123 32.096-28.393zm-37 30.405h12.674c-.394 1.434-.454 2.769-.423 3.687.019.551.019 1.103 0 1.654-.031.927.032 2.28.438 3.73h-12.689zm.14 11.071h8.608c-.457 1.959-2.208 3.427-4.304 3.427s-3.847-1.468-4.304-3.427zm16.639 54.223-4.233-12.699c13.484-3.186 19.885-11.85 22.886-18.59-2.801 20.929-15.084 29.28-18.653 31.289zm21.794-31.29c3 6.74 9.4 15.404 22.886 18.59l-4.233 12.7c-3.571-2.01-15.855-10.357-18.653-31.29z" fill="#3a2c60"/><path d="m98.845 73.348c-.531.15-.841.702-.691 1.233.538 1.908 1.08 3.78 1.625 5.618 0 .001.001.002.002.004l.391 1.295c.13.433.527.712.957.712.096 0 .192-.014.289-.043.528-.16.828-.718.668-1.246l-.388-1.288c0-.001 0-.002 0-.003-.543-1.83-1.083-3.693-1.617-5.591-.152-.531-.703-.841-1.236-.691z" fill="#3a2c60"/><path d="m62.242 42.783c-.141 0-.282-.06-.381-.176-.179-.21-.153-.526.057-.705l.19-.162c.18-.151.44-.159.626-.018l.199.151c.22.167.264.48.097.7-.137.182-.376.245-.58.164-.066.031-.137.046-.208.046z" fill="#fff"/><path d="m66.069 66.213c-.185 0-.363-.103-.449-.281-.121-.248-.018-.547.23-.668.158-.077.318-.151.48-.222.25-.112.547.003.659.256.111.253-.004.548-.257.659-.15.066-.299.135-.445.207-.069.033-.143.049-.218.049zm4.361-1.379c-.238 0-.449-.171-.491-.415-.048-.272.135-.531.406-.578.171-.029.343-.057.516-.083.281-.041.527.148.568.422.04.273-.149.527-.422.567-.165.024-.329.05-.49.079-.03.006-.059.008-.087.008zm4.571-.321c-.265 0-.485-.208-.499-.475-.015-.276.197-.511.474-.525.167-.008.331-.019.493-.033.272-.022.517.182.539.458.022.275-.182.517-.457.54-.172.014-.348.025-.524.035-.009 0-.018 0-.026 0zm4.448-.994c-.187 0-.366-.105-.452-.286-.118-.25-.012-.547.237-.666.146-.069.287-.142.425-.218.239-.131.546-.049.68.194.135.241.048.546-.193.68-.155.086-.316.169-.481.248-.07.032-.143.048-.216.048zm3.173-3.174c-.069 0-.14-.014-.207-.045-.251-.114-.362-.411-.248-.662.066-.145.126-.291.179-.437.096-.26.384-.393.642-.297.26.095.393.382.298.641-.063.169-.132.338-.208.507-.085.184-.266.293-.456.293zm.682-4.493c-.273 0-.497-.22-.5-.494l-.001-.247.002-.274c.003-.276.221-.507.506-.495.275.003.497.229.494.505l-.002.264.001.235c.003.276-.218.502-.494.506-.002 0-.004 0-.006 0zm-.498-4.529c-.201 0-.392-.123-.468-.322-.056-.147-.116-.294-.183-.441-.114-.251-.003-.548.248-.662.252-.114.548-.003.662.248.076.167.145.333.208.5.098.258-.032.547-.29.645-.058.021-.118.032-.177.032zm-2.927-3.401c-.082 0-.164-.02-.241-.062-.137-.075-.278-.147-.425-.216-.25-.117-.358-.415-.241-.665s.416-.358.665-.24c.166.078.327.16.483.246.242.133.33.437.197.679-.091.165-.262.258-.438.258zm-4.396-1.181c-.014 0-.027 0-.04-.001-.162-.013-.327-.023-.494-.031-.275-.013-.488-.248-.475-.523s.224-.493.523-.476c.177.009.352.02.523.033.275.022.481.263.459.538-.02.261-.239.46-.496.46zm-4.576-.282c-.025 0-.051-.002-.076-.006-.174-.026-.346-.055-.515-.085-.272-.048-.454-.308-.405-.58.048-.272.313-.455.579-.405.161.028.325.056.491.081.273.042.461.296.419.569-.037.249-.25.426-.493.426zm-4.399-1.259c-.067 0-.136-.014-.202-.042-.163-.072-.322-.146-.478-.22-.249-.12-.354-.418-.233-.667s.419-.353.667-.234c.146.07.295.139.448.207.252.112.367.407.255.659-.082.186-.266.297-.457.297z" fill="#fff"/><path d="m62.433 68.601c-.116 0-.231-.04-.324-.119l-.19-.162c-.21-.179-.235-.495-.057-.705.149-.174.391-.221.589-.13.204-.08.443-.018.58.164.167.22.124.534-.097.7l-.2.151c-.089.067-.195.101-.301.101z" fill="#fff"/><path d="m59.074 66.214c-.072 0-.146-.016-.216-.049-.139-.067-.281-.131-.426-.195-.253-.11-.369-.405-.258-.658.11-.252.404-.367.658-.258.155.068.308.138.458.21.249.119.354.418.234.667-.085.178-.264.283-.45.283zm-4.165-1.284c-.029 0-.058-.002-.087-.008l-.47-.078c-.273-.043-.459-.299-.417-.571.043-.272.297-.456.571-.417l.489.082c.272.048.454.307.405.579-.042.243-.253.413-.491.413zm-4.351-.388c-.002 0-.005 0-.008 0l-.478-.004c-.276 0-.5-.224-.5-.5s.224-.5.5-.5l.494.004c.276.004.496.231.492.508-.005.273-.227.492-.5.492zm-4.339-.429c-.042 0-.083-.005-.125-.016-.166-.043-.329-.089-.488-.137-.264-.081-.413-.36-.333-.624.081-.264.359-.413.624-.333.146.044.294.086.447.125.267.069.428.342.359.609-.058.226-.261.376-.484.376zm-3.759-2.108c-.136 0-.271-.055-.37-.163-.12-.132-.233-.266-.338-.403-.169-.219-.128-.533.09-.701.219-.17.534-.128.701.09.09.116.185.229.287.341.186.204.171.521-.033.707-.096.086-.216.129-.337.129zm-1.71-3.95c-.249 0-.463-.185-.496-.438-.022-.174-.039-.345-.051-.508-.021-.275.186-.516.461-.536.279-.022.516.186.536.461.011.148.026.301.046.458.035.274-.159.524-.434.559-.02.003-.041.004-.062.004zm-.05-4.369c-.012 0-.024 0-.037-.001-.275-.02-.482-.259-.462-.535.012-.164.028-.334.049-.509.034-.273.283-.47.558-.435.274.034.469.283.435.558-.02.157-.034.31-.044.458-.02.263-.239.464-.499.464zm1.427-4.069c-.106 0-.213-.034-.303-.103-.219-.168-.261-.481-.093-.701.105-.137.217-.271.334-.403.186-.206.501-.222.706-.039.206.185.223.5.039.706-.101.112-.196.227-.286.344-.098.129-.247.196-.397.196zm3.592-2.365c-.213 0-.411-.137-.478-.352-.082-.264.065-.544.329-.626.16-.049.323-.096.49-.14.265-.068.541.09.61.358.07.267-.09.54-.358.61-.151.04-.3.082-.445.127-.049.016-.099.023-.148.023zm4.319-.567c-.276 0-.5-.224-.5-.5s.224-.5.5-.5l.478-.004c.323.007.503.216.508.492.004.276-.216.503-.492.508zm4.357-.308c-.243 0-.456-.177-.494-.424-.042-.273.145-.528.418-.57l.471-.077c.271-.046.53.135.578.408.047.272-.135.531-.408.578l-.488.08c-.027.003-.052.005-.077.005zm4.206-1.153c-.194 0-.378-.113-.459-.302-.109-.253.007-.548.261-.657.145-.063.287-.127.426-.193.25-.119.548-.013.666.236.119.249.013.547-.236.666-.15.072-.303.141-.459.208-.066.028-.133.042-.199.042z" fill="#fff"/><path d="m62.514 66.094c-2.369-2.02-6.307-3.655-12.845-3.655-2.954 0-5.073-.642-6.297-1.909-1.331-1.377-1.47-3.369-1.434-4.433.022-.654.022-1.317 0-1.971-.036-1.065.103-3.056 1.434-4.433 1.225-1.267 3.343-1.909 6.297-1.909 6.538 0 10.476-1.636 12.845-3.656 2.413 1.824 6.228 3.656 11.817 3.656 2.954 0 5.072.642 6.297 1.909 1.331 1.377 1.47 3.369 1.434 4.433-.023.653-.023 1.318 0 1.974.036 1.062-.103 3.054-1.434 4.431-1.225 1.266-3.344 1.909-6.297 1.909-5.59-.001-9.405 1.831-11.817 3.654z" fill="#d4fbff"/><g fill="#fa759e"><path d="m50.062 56.016c0 .213-.052.444-.158.692-.105.249-.271.492-.496.731-.226.239-.514.434-.864.583s-.759.224-1.225.224c-.354 0-.675-.034-.964-.101s-.552-.171-.789-.313c-.236-.142-.453-.329-.651-.56-.177-.21-.328-.446-.452-.706-.125-.261-.219-.539-.281-.834-.063-.295-.094-.609-.094-.941 0-.54.078-1.022.235-1.449s.382-.792.674-1.095.635-.534 1.028-.692c.393-.159.812-.238 1.257-.238.542 0 1.025.108 1.449.325.424.216.748.484.974.802s.338.619.338.903c0 .155-.055.292-.165.411s-.242.178-.398.178c-.173 0-.304-.041-.391-.124-.087-.082-.184-.224-.29-.425-.177-.332-.385-.581-.624-.745s-.534-.247-.885-.247c-.558 0-1.002.212-1.333.636-.331.423-.496 1.025-.496 1.805 0 .521.073.955.219 1.301s.354.604.622.774c.268.171.582.256.942.256.39 0 .72-.097.989-.291.27-.193.473-.478.61-.853.058-.177.129-.32.215-.432s.223-.167.412-.167c.161 0 .3.057.416.169.118.115.176.255.176.423z"/><path d="m51.337 57.419v-5.28c0-.274.063-.48.188-.617s.287-.206.484-.206c.204 0 .37.068.496.204.126.135.19.342.19.619v5.28c0 .277-.063.484-.19.622s-.292.206-.496.206c-.195 0-.355-.069-.482-.208s-.19-.346-.19-.62z"/><path d="m56.037 55.266h-.476v2.153c0 .283-.063.492-.187.626-.125.134-.288.201-.489.201-.216 0-.384-.07-.503-.21s-.178-.346-.178-.617v-5.156c0-.292.065-.504.197-.635.131-.131.343-.197.635-.197h2.208c.305 0 .565.013.782.039s.412.078.585.158c.21.088.396.215.558.379.161.165.284.355.368.573s.126.449.126.693c0 .5-.141.899-.423 1.197-.282.299-.709.511-1.282.636.241.128.471.317.69.567.22.25.416.516.587.797.172.282.307.537.402.763.096.227.144.383.144.469 0 .088-.028.176-.084.263-.057.087-.133.156-.231.206s-.21.075-.338.075c-.152 0-.28-.036-.384-.107s-.193-.162-.268-.272-.176-.271-.304-.484l-.544-.905c-.195-.332-.37-.585-.523-.759s-.31-.292-.469-.356c-.159-.065-.359-.097-.599-.097zm.777-2.816h-1.253v1.842h1.216c.326 0 .6-.028.823-.084.222-.056.392-.152.509-.288.118-.135.176-.322.176-.56 0-.186-.047-.35-.142-.492s-.226-.248-.393-.317c-.158-.068-.47-.101-.936-.101z"/><path d="m66.531 56.016c0 .213-.053.444-.156.692-.105.249-.271.492-.496.731-.227.239-.514.434-.866.583-.35.149-.758.224-1.225.224-.354 0-.674-.034-.965-.101-.289-.067-.553-.171-.787-.313-.236-.142-.455-.329-.652-.56-.176-.21-.328-.446-.452-.706-.125-.261-.219-.539-.281-.834-.063-.295-.094-.609-.094-.941 0-.54.078-1.022.235-1.449.156-.427.381-.792.674-1.095s.637-.534 1.029-.692c.393-.159.813-.238 1.256-.238.543 0 1.025.108 1.449.325.424.216.749.484.975.802.225.318.338.619.338.903 0 .155-.055.292-.164.411s-.242.178-.398.178c-.174 0-.305-.041-.391-.124-.086-.082-.184-.224-.292-.425-.176-.332-.385-.581-.623-.745-.24-.165-.535-.247-.885-.247-.557 0-1.002.212-1.332.636-.33.423-.496 1.025-.496 1.805 0 .521.072.955.219 1.301.146.346.354.604.623.774.268.171.582.256.941.256.389 0 .719-.097.988-.291.27-.193.475-.478.611-.853.057-.177.129-.32.215-.432.084-.111.223-.167.41-.167.162 0 .301.057.416.169.12.115.176.255.176.423z"/><path d="m67.762 55.362v-3.223c0-.274.062-.48.186-.617.123-.137.285-.206.486-.206.211 0 .378.068.501.206s.185.343.185.617v3.296c0 .375.042.688.126.939s.232.446.446.585c.213.139.512.208.896.208.53 0 .905-.141 1.124-.423.22-.282.329-.709.329-1.282v-3.323c0-.277.062-.484.184-.619.121-.136.284-.204.489-.204.204 0 .369.068.495.204.127.135.19.342.19.619v3.223c0 .524-.052.961-.153 1.312-.103.35-.295.658-.578.923-.244.226-.527.39-.851.494s-.701.155-1.134.155c-.515 0-.958-.056-1.33-.167s-.675-.283-.909-.517c-.235-.233-.407-.532-.517-.896-.111-.363-.165-.798-.165-1.304z"/><path d="m79.957 56.121c0 .405-.104.77-.313 1.092-.209.323-.515.576-.917.759s-.879.274-1.431.274c-.661 0-1.207-.125-1.637-.375-.305-.18-.552-.419-.742-.72s-.286-.592-.286-.875c0-.165.058-.305.172-.423.114-.117.26-.176.437-.176.143 0 .264.046.363.137s.184.227.254.407c.085.213.177.392.276.535.099.144.238.261.418.354s.416.139.709.139c.402 0 .729-.094.98-.281.251-.188.377-.421.377-.702 0-.223-.068-.403-.203-.542-.136-.139-.312-.245-.526-.317-.215-.073-.502-.151-.861-.233-.481-.113-.885-.245-1.209-.396s-.582-.356-.772-.617-.286-.584-.286-.972c0-.369.101-.696.302-.982.201-.287.492-.507.873-.661s.829-.231 1.344-.231c.412 0 .768.051 1.067.153.301.102.55.237.748.407.197.169.343.347.434.532.092.186.138.368.138.544 0 .162-.058.307-.172.437s-.257.194-.427.194c-.156 0-.274-.039-.354-.116-.081-.078-.169-.205-.263-.382-.122-.253-.269-.45-.439-.592-.171-.142-.444-.213-.822-.213-.351 0-.634.077-.849.231s-.322.339-.322.555c0 .134.037.25.11.348s.174.181.302.251.257.125.389.165c.131.04.347.098.648.174.378.088.72.186 1.026.292.307.106.566.236.781.388.215.153.383.345.503.579.121.235.18.52.18.859z"/></g></svg>